# xmcd CD database file
#
# Track frame offsets:
#	183
#	102958
#	144583
#	181645
#	242508
#	269138
#
# Disc length: 4082 seconds
#
# Revision: 8
# Processed by: cddbd v1.5.2PL0 Copyright (c) Steve Scherf et al.
# Submitted via: CDex 1.51
#
DISCID=4e0ff006
DTITLE=Various Artist - Brahms - Schumann ~ Violin Concertos (Dohnányi, Cleveland Orchestra - Joshua Bell, violin)
DYEAR=1996
DGENRE=Classique
TTITLE0=Johannes Brahms - Violin Concerto in D major, Op.77 - I. Allegro non troppo
TTITLE1=Johannes Brahms - Violin Concerto in D major, Op.77 - II. Adagio
TTITLE2=Johannes Brahms - Violin Concerto in D major, Op.77 - III. Allegro giocoso, ma non troppo vivace
TTITLE3=Robert Schumann - Violin Concerto in D minor - I. In kräftigem, nicht zu schnellem Tempo
TTITLE4=Robert Schumann - Violin Concerto in D minor - II. Langsam
TTITLE5=Robert Schumann - Violin Concerto in D minor - III. Lebhaft, doch nicht schnell
EXTD=YEAR: 1996
EXTT0=
EXTT1=
EXTT2=
EXTT3=
EXTT4=
EXTT5=
PLAYORDER=
